# xmcd
#
# Track frame offsets:
#	150
#	17891
#	38812
#	53337
#	67729
#	86100
#	99752
#	113328
#	128676
#	146161
#	162346
#	181774
#	195998
#
# Disc length: 2813 seconds
#
# Revision: 1
# Processed by: cddbd v1.5.1PL0 Copyright (c) Steve Scherf et al.
# Submitted via: audiograbber 1.83.01
#
DISCID=960afb0d
DTITLE=Kimball Brisco Johnson - Blood On The Roses
DYEAR=2004
DGENRE=Country
TTITLE0=China Rose
TTITLE1=Blood On The Roses
TTITLE2=Could We Agree
TTITLE3=I See You In My Dreams
TTITLE4=Just A Fool
TTITLE5=Avalanche Of Tears
TTITLE6=She Don't Love Me Anymore
TTITLE7=Lady Of The Night
TTITLE8=Mother Left On The Train
TTITLE9=Texas Water
TTITLE10=Walk Among The Flowers
TTITLE11=Wicked Woman
TTITLE12=He Was My Dad
EXTD=
EXTT0=
EXTT1=
EXTT2=
EXTT3=
EXTT4=
EXTT5=
EXTT6=
EXTT7=
EXTT8=
EXTT9=
EXTT10=
EXTT11=
EXTT12=
PLAYORDER=
